<svg width="25" height="24" viewBox="0 0 25 24" fill="none" xmlns="http://www.w3.org/2000/svg">
<g clip-path="url(#clip0_388_38482)">
<path d="M12.6666 23C18.7418 23 23.6666 18.0751 23.6666 12C23.6666 5.92486 18.7418 1 12.6666 1C6.59148 1 1.66663 5.92486 1.66663 12C1.66663 18.0751 6.59148 23 12.6666 23Z" stroke="#0A0A0A"/>
<path d="M13.9225 22.93V21.6492C13.9225 21.5871 13.935 21.5249 13.9557 21.4669L14.6686 19.6183C14.6893 19.5603 14.7017 19.4981 14.7017 19.436V18.5242C14.7017 18.3128 14.5691 18.1221 14.3702 18.0517L12.9195 17.517C12.7205 17.4424 12.5879 17.2559 12.5879 17.0445V14.5121C12.5879 14.3048 12.4595 14.1184 12.2646 14.0396L8.9116 12.7382C8.75411 12.676 8.6339 12.5392 8.60076 12.3734L8.10754 10.0731C8.05779 9.84104 7.85056 9.67523 7.61432 9.67523H6.38332C6.18441 9.67523 6.00617 9.5592 5.92328 9.38096L5.07776 7.52829C5.01973 7.40394 5.01558 7.26302 5.06533 7.1387L5.54198 5.89113C5.60826 5.7129 5.57098 5.50984 5.44249 5.36892L4.63428 4.48193" stroke="#0A0A0A"/>
<path d="M6.62396 2.80322L7.98342 3.41249C8.04973 3.44151 8.12019 3.45808 8.19065 3.45808H13.8647C13.9601 3.45808 14.0554 3.4871 14.1342 3.53683L16.4634 5.0165C16.6085 5.10767 16.6997 5.2693 16.6997 5.4434V7.2629C16.6997 7.5406 16.4718 7.76855 16.1941 7.76855H15.7008C15.5143 7.76855 15.3444 7.86804 15.2574 8.03382L14.2999 9.79532C14.2129 9.95695 14.0429 10.0606 13.8565 10.0606H11.9168C11.6391 10.0606 11.4111 10.2885 11.4111 10.5662V11.5361C11.4111 11.7226 11.5147 11.8925 11.6763 11.9796L13.7404 13.0862C13.9062 13.1774 14.1134 13.1649 14.2668 13.0572L14.7766 12.7007C14.8595 12.6427 14.9631 12.6095 15.0667 12.6095H17.5038C17.6695 12.6095 17.8271 12.6925 17.9182 12.8292L19.2943 14.8311C19.3896 14.9679 19.543 15.0508 19.7087 15.0508H19.9782C20.2559 15.0508 20.4838 15.2787 20.4838 15.5564V16.2445C20.4838 16.4434 20.3677 16.6216 20.1895 16.7045L19.2155 17.1563C19.0373 17.2392 18.9213 17.4174 18.9213 17.6163V18.4453C18.9213 18.5572 18.8839 18.6691 18.8135 18.7561L15.8501 22.5485" stroke="#0A0A0A"/>
<path d="M20.5872 4.36597V6.39684C20.5872 6.52948 20.5333 6.65797 20.438 6.75329L20.1852 7.00613C20.0898 7.10145 20.0359 7.22994 20.0359 7.36257V8.35316C20.0359 8.63082 20.2639 8.8588 20.5416 8.8588H22.672C22.7259 8.8588 22.7839 8.86709 22.8336 8.8878L23.2605 9.03287" fill="#0A0A0A"/>
<path d="M20.5872 4.36597V6.39684C20.5872 6.52948 20.5333 6.65797 20.438 6.75329L20.1852 7.00613C20.0898 7.10145 20.0359 7.22994 20.0359 7.36257V8.35316C20.0359 8.63082 20.2639 8.8588 20.5416 8.8588H22.672C22.7259 8.8588 22.7839 8.86709 22.8336 8.8878L23.2605 9.03287" stroke="#0A0A0A"/>
<path d="M6.6701 3L5.1701 4.5L6.1701 5.5L5.6701 7L6.1701 9H8.1701L9.1701 12L13.1701 14V17L15.1701 18V19.5L14.1701 22H15.1701L16.6701 20.5L18.1701 18.5V17L20.1701 16L19.1701 15L17.6701 13L15.1701 13.5H13.6701H12.6701L10.6701 12V10L13.6701 9.5L14.6701 8L16.1701 7V5.5L13.6701 4H8.1701L6.6701 3Z" fill="#0A0A0A" stroke="#0A0A0A"/>
</g>
<defs>
<clipPath id="clip0_388_38482">
<rect width="24" height="24" fill="white" transform="translate(0.666626)"/>
</clipPath>
</defs>
</svg>
