<svg width="81" height="80" viewBox="0 0 81 80" fill="none" xmlns="http://www.w3.org/2000/svg">
<path d="M45.1667 61H36.1667V62.5H45.1667V61Z" fill="#0A0A0A"/>
<path fill-rule="evenodd" clip-rule="evenodd" d="M61.6666 62.5C61.6666 64.9854 59.652 67 57.1666 67H24.1666C21.6814 67 19.6666 64.9854 19.6666 62.5V17.5C19.6666 15.0147 21.6814 13 24.1666 13H57.1666C59.652 13 61.6666 15.0147 61.6666 17.5V62.5ZM57.1666 65.5H24.1666C22.5098 65.5 21.1666 64.1569 21.1666 62.5V17.5C21.1666 15.8431 22.5098 14.5 24.1666 14.5H57.1666C58.8235 14.5 60.1666 15.8432 60.1666 17.5V62.5C60.1666 64.1569 58.8235 65.5 57.1666 65.5Z" fill="#0A0A0A"/>
<path d="M49.9822 48.9194C49.9822 49.0967 49.9054 49.2542 49.7901 49.3724C49.6749 49.5103 49.502 49.5693 49.3483 49.5693H47.293C47.1777 49.5693 47.0817 49.4709 47.0817 49.3527V48.1514C47.0817 47.9544 46.928 47.8165 46.7359 47.8165H34.5961C34.404 47.8165 34.2503 47.9544 34.2503 48.1514V49.3527C34.2503 49.4709 34.1543 49.5693 34.0391 49.5693H32.0029C31.8301 49.5693 31.6572 49.5103 31.5419 49.3724C31.4267 49.2542 31.3498 49.0967 31.3498 48.9194L31.3883 44.5079C31.2538 42.4794 31.5227 42.1052 31.6956 41.8689C31.7724 41.7704 31.8877 41.6719 32.0221 41.6129C32.1758 41.5144 32.3295 41.4159 32.4447 41.2387C32.56 41.0417 32.7137 40.8842 32.925 40.7463C33.6357 40.254 33.8854 39.7222 33.9046 39.6631C34.6729 37.8316 35.5181 37.0241 35.8639 36.7681C35.9023 36.7287 35.9599 36.709 35.9983 36.709L45.1224 36.6893L45.3337 36.709C45.3913 36.709 45.4298 36.7287 45.4682 36.7681C45.8139 37.0241 46.6591 37.8119 47.4274 39.6828C47.4467 39.7419 47.6964 40.254 48.4071 40.7463C48.6184 40.8842 48.772 41.0417 48.8873 41.2387C49.0026 41.4159 49.1562 41.5144 49.3099 41.6129C49.4444 41.6916 49.5788 41.7704 49.6556 41.8689C49.8093 42.1052 50.0782 42.4794 49.9438 44.5276L49.9822 48.9194ZM44.6614 44.0943C44.6614 44.0943 43.8162 44.3701 43.2016 44.3701C42.9903 44.3701 42.6637 44.3898 42.2988 44.3898C41.5496 44.3898 40.666 44.3701 40.666 44.3701C40.666 44.3701 39.7824 44.3898 39.0333 44.3898C38.6683 44.3898 38.3418 44.3701 38.1305 44.3701C37.5158 44.3701 36.6706 44.0943 36.6322 44.0746C36.4209 44.0353 36.3633 43.7398 36.3633 43.7398C36.3633 43.7398 36.2673 43.2278 36.2673 42.7748C36.2673 42.6173 36.5554 42.6173 36.5554 42.5976L40.1666 42.4203H41.1654L43.5857 42.5385L44.7767 42.6173C44.7959 42.6173 45.084 42.6173 45.084 42.7748C45.084 43.0702 45.0264 43.3853 45.0072 43.5823C44.988 43.6808 44.9687 43.7398 44.9687 43.7398C44.9687 43.7398 44.9687 43.7595 44.9495 43.7989C44.9303 43.8777 44.8535 44.0549 44.6614 44.0943ZM44.8151 41.9083L41.1847 41.731H41.1654H40.1474L36.5362 41.9083C36.517 41.9083 36.517 41.9083 36.517 41.9083C36.1328 41.928 35.5757 42.1643 35.5757 42.7748C35.5757 43.2869 35.691 43.858 35.691 43.8777C35.7486 44.1534 35.9791 44.6458 36.4593 44.7442C36.4978 44.7639 37.4006 45.0594 38.1305 45.079C38.361 45.079 38.7067 45.079 39.0909 45.079C39.84 45.079 40.6468 45.079 40.666 45.079C40.7044 45.079 42.5293 45.079 43.2016 45.079C43.9315 45.0594 44.8343 44.7639 44.8343 44.7639C45.2377 44.6655 45.449 44.3701 45.5642 44.114C45.6026 44.0353 45.6218 43.9565 45.641 43.8777C45.641 43.858 45.7563 43.3066 45.7563 42.7748C45.7563 42.1643 45.18 41.928 44.8151 41.9083ZM48.5415 41.6326L46.6399 41.928C46.5054 41.9477 46.371 42.0067 46.2557 42.0855C46.1213 42.2037 46.0828 42.4203 46.1789 42.5779C46.2557 42.6764 46.3518 42.7157 46.467 42.7157C46.5246 42.7157 46.6015 42.696 46.6591 42.6567C46.6783 42.637 46.7167 42.6173 46.7359 42.6173L48.6376 42.3219C48.8297 42.2825 48.9641 42.1052 48.9257 41.928C48.9065 41.731 48.7144 41.6129 48.5415 41.6326ZM34.6921 41.928L32.7905 41.6326C32.6176 41.6129 32.4255 41.731 32.4063 41.928C32.3679 42.1052 32.5024 42.2825 32.6945 42.3219L34.5769 42.6173C34.6153 42.6173 34.6537 42.637 34.6729 42.6567C34.7306 42.696 34.8074 42.7157 34.865 42.7157C34.9803 42.7157 35.0955 42.6764 35.1532 42.5779C35.2684 42.4203 35.23 42.2037 35.0763 42.0855C34.9611 42.0067 34.8266 41.9477 34.6921 41.928ZM32.1566 39.3283H33.3091C33.3091 39.348 33.2899 39.3677 33.2899 39.3874C33.2899 39.3874 33.0978 39.801 32.56 40.1555C32.5024 40.1949 32.4639 40.2343 32.4063 40.2933C32.3679 40.2737 32.3295 40.254 32.2911 40.254C32.1374 40.254 31.7916 39.8404 31.8109 39.4071C31.8685 39.348 32.0414 39.3283 32.1566 39.3283ZM49.2331 39.3283C49.3291 39.3283 49.502 39.348 49.5788 39.4662C49.5788 39.8404 49.2331 40.254 49.0986 40.254C49.041 40.254 48.9833 40.2737 48.9449 40.2933C48.8873 40.254 48.8297 40.1949 48.7721 40.1555C48.2342 39.801 48.0421 39.3874 48.0421 39.3874C48.0421 39.3677 48.0229 39.348 48.0229 39.3283H49.2331ZM50.1935 41.4553C50.0398 41.2387 49.8285 41.1205 49.6556 41.0023C49.598 40.963 49.502 40.9039 49.4636 40.8842C49.4636 40.8645 49.4636 40.8645 49.4444 40.8448C49.9054 40.6085 50.2511 39.9782 50.2511 39.4662C50.2511 39.2299 50.1743 39.0526 50.0206 38.8951C49.7325 38.6193 49.2907 38.639 49.2138 38.639H47.6964C46.9664 37.162 46.1981 36.453 45.8716 36.1969C45.7371 36.0985 45.5834 36.0394 45.3913 36.0197L36.1712 36H36.152L35.9407 36.0197C35.7678 36.0394 35.5949 36.0985 35.4605 36.2166C35.1339 36.453 34.3656 37.162 33.6357 38.639H32.1758C32.099 38.6193 31.638 38.6193 31.3498 38.8951C31.1962 39.0526 31.1193 39.2299 31.1193 39.4662C31.1193 39.9782 31.4651 40.5888 31.8877 40.8448C31.8877 40.8448 31.8685 40.8645 31.8685 40.8842C31.8301 40.9039 31.734 40.963 31.6764 41.0023C31.5035 41.1205 31.2922 41.2387 31.1386 41.4553C30.9081 41.8098 30.5623 42.2628 30.6968 44.5276L30.6775 48.8997C30.6775 49.2739 30.812 49.6087 31.0617 49.8648C31.3114 50.1208 31.638 50.2586 32.0029 50.2586H34.0391C34.5193 50.2586 34.9226 49.8451 34.9226 49.3527V48.5058H46.4094V49.3527C46.4094 49.8451 46.8128 50.2586 47.293 50.2586H49.3483C49.6941 50.2586 50.0206 50.1208 50.2703 49.8648C50.52 49.6087 50.6545 49.2739 50.6545 48.8997L50.6353 44.5473C50.7697 42.2825 50.4432 41.8098 50.1935 41.4553Z" fill="#0A0A0A"/>
<rect x="25.1666" y="19.5" width="31" height="37" stroke="#0A0A0A"/>
</svg>
