<svg width="25" height="24" viewBox="0 0 25 24" fill="none" xmlns="http://www.w3.org/2000/svg">
<path d="M22.4866 1.68C20.7946 1.43051e-07 18.0826 0 12.6706 0H11.6626C6.25063 0 3.53863 1.43051e-07 1.84663 1.68C0.154628 3.36 0.166628 6.084 0.166628 11.496V12.504C0.166628 17.916 0.166628 20.628 1.84663 22.32C3.52663 24.012 6.25063 24 11.6626 24H12.6706C18.0826 24 20.7946 24 22.4866 22.32C24.1786 20.64 24.1666 17.916 24.1666 12.504V11.496C24.1666 6.084 24.1666 3.372 22.4866 1.68ZM19.6666 17.004H17.9146C17.2546 17.004 17.0506 16.464 15.8746 15.276C14.8306 14.28 14.3866 14.148 14.1226 14.148C13.8586 14.148 13.6666 14.244 13.6666 14.748V16.32C13.6666 16.752 13.5346 17.004 12.4666 17.004C11.378 16.9391 10.3207 16.6144 9.38321 16.0568C8.4458 15.4994 7.65555 14.7256 7.07863 13.8C5.72095 12.104 4.77608 10.1158 4.31863 7.992C4.31863 7.74 4.41463 7.5 4.91863 7.5H6.67063C7.11463 7.5 7.28263 7.692 7.45063 8.184C8.30263 10.668 9.75463 12.852 10.3426 12.852C10.5706 12.852 10.6666 12.744 10.6666 12.18V9.6C10.6066 8.4 9.97063 8.316 9.97063 7.896C9.97219 7.83978 9.98491 7.78444 10.0082 7.73326C10.0316 7.68208 10.0648 7.6361 10.1063 7.59805C10.1477 7.56 10.1963 7.53065 10.2493 7.51175C10.3023 7.49284 10.3585 7.48476 10.4146 7.488H13.1626C13.5346 7.488 13.6666 7.692 13.6666 8.136V11.604C13.6666 11.964 13.8346 12.096 13.9426 12.096C14.0506 12.096 14.3506 11.964 14.7586 11.556C15.6449 10.4663 16.3685 9.25358 16.9066 7.956C16.9636 7.80156 17.0695 7.66994 17.2081 7.58113C17.3467 7.49233 17.5105 7.45121 17.6746 7.464H19.3666C19.9066 7.464 20.0146 7.74 19.9066 8.112C19.2512 9.53318 18.4467 10.8808 17.5066 12.132C17.3266 12.432 17.2546 12.576 17.5066 12.912C17.7586 13.248 18.3106 13.692 18.7066 14.172C19.3103 14.7683 19.8093 15.462 20.1826 16.224C20.4226 16.8 20.1706 17.004 19.6666 17.004Z" fill="#0A0A0A"/>
</svg>
