<svg width="32" height="32" viewBox="0 0 32 32" fill="none" xmlns="http://www.w3.org/2000/svg">
<path d="M14.44 17.2115H18.3238V15.915H17.8973C17.8973 16.4109 17.5345 16.7765 16.9805 16.7765H16.3826V14.8409H17.0273V14.4116H14.44V14.8409H15.0917L15.0932 16.7765H14.44V17.2115Z" fill="#0A0A0A"/>
<path d="M20.1913 17.2129L21.7017 17.2143L22.9841 14.8424H23.6273V14.413H21.6932V14.8424H22.2529L21.3177 16.5696L20.3712 14.8424H21.0499V14.413H18.2444L18.243 14.8424H18.8863L20.1913 17.2129Z" fill="#0A0A0A"/>
<path d="M6.70634 14.413H3.90081L3.89939 14.8424H4.54268L5.84767 17.2129L7.35812 17.2143L8.64045 14.8424H9.28374V14.413H7.34962V14.8424H7.90789L6.97414 16.5696L6.02763 14.8424H6.70634V14.413Z" fill="#0A0A0A"/>
<path d="M9.65922 15.8158C9.65922 16.6404 10.3238 17.2965 11.6557 17.2965C12.9876 17.2965 13.6451 16.6404 13.6451 15.8158C13.6451 15.0025 12.9479 14.3535 11.6472 14.3535C10.3493 14.3535 9.65922 15.0025 9.65922 15.8158ZM12.3415 15.8229C12.333 16.3316 12.1219 16.8615 11.6344 16.853C11.1598 16.8445 10.9515 16.3202 10.96 15.7988C10.9699 15.2589 11.2278 14.7885 11.6727 14.7956C12.1176 14.8027 12.3514 15.283 12.3415 15.8229Z" fill="#0A0A0A"/>
<path d="M23.9986 15.8158C23.9986 16.6404 24.6631 17.2965 25.995 17.2965C27.327 17.2965 27.9844 16.6404 27.9844 15.8158C27.9844 15.0025 27.2873 14.3535 25.988 14.3535C24.6886 14.3535 23.9986 15.0025 23.9986 15.8158ZM26.012 14.7956C26.4555 14.8041 26.6907 15.283 26.6808 15.8229C26.6709 16.3316 26.4612 16.8615 25.9738 16.853C25.4991 16.8445 25.2908 16.3202 25.2993 15.7988C25.3092 15.2575 25.5671 14.7871 26.012 14.7956Z" fill="#0A0A0A"/>
<path d="M29.1661 6.90896L27.5409 8.53418C28.9338 10.6837 29.7442 13.2469 29.7442 16C29.7442 23.5905 23.5905 29.7442 16 29.7442C8.40949 29.7442 2.25576 23.5905 2.25576 16C2.25576 8.40949 8.40949 2.25576 16 2.25576C18.7588 2.25576 21.3277 3.06908 23.4814 4.469L25.1066 2.84378C22.5221 1.05136 19.3836 0 16 0C7.16401 0 0 7.16259 0 16C0 24.8374 7.16259 32 16 32C24.8374 32 32 24.8374 32 16C31.9986 12.622 30.9515 9.49061 29.1661 6.90896Z" fill="#0A0A0A"/>
<path d="M24.0482 0.629118V1.07829C25.0188 1.60397 25.9313 2.22458 26.7772 2.92171L24.4973 5.20156C25.3574 5.87602 26.1339 6.6525 26.8098 7.51116L29.0868 5.23415C29.7853 6.08147 30.406 6.9954 30.9316 7.95182H31.3695V0.629118H24.0482Z" fill="#0A0A0A"/>
</svg>
