<svg xmlns="http://www.w3.org/2000/svg" xmlns:xlink="http://www.w3.org/1999/xlink"><defs>
<clipPath id="clip0_348_909">
<rect width="103.04" height="8" fill="white"/>
</clipPath>

<clipPath id="clip0_388_38482">
<rect width="24" height="24" fill="white" transform="translate(0.666626)"/>
</clipPath>
</defs><symbol id="arrow-accordion" viewBox="0 0 24 14">
<path d="M23 1L12 13L1 1"/>
</symbol><symbol id="arrow-go-to" viewBox="0 0 9 15">
<path fill-rule="evenodd" clip-rule="evenodd" d="M6.64642 7.35356L0 14L0.70711 14.7071L8.06062 7.35356L0.70711 0L1.00136e-05 0.707106L6.64642 7.35356Z"/>
</symbol><symbol id="arrow" viewBox="0 0 8 12">
<path d="M0.727539 10L4.72754 6L0.727539 2L1.99954 0.729004L7.27254 6L1.99954 11.273L0.727539 10.001V10Z"/>
</symbol><symbol id="cross" viewBox="0 0 24 24">
<path d="M12.9584 12L24 0.958402L23.0416 0L12 11.0416L0.958524 0.000108254L0.00012207 0.95851L11.0416 12L0.00012207 23.0415L0.958524 23.9999L12 12.9584L23.0416 24L24 23.0416L12.9584 12Z"/>
</symbol><symbol id="headphones" viewBox="0 0 81 80"><g fill="none">
<path fill-rule="evenodd" clip-rule="evenodd" d="M44.71 60.915C44.3551 58.8775 42.5827 57.3343 40.4418 57.3343C38.0443 57.3343 36.109 59.2696 36.109 61.6672C36.109 64.0647 38.0443 66 40.4418 66C42.604 66 44.3903 64.426 44.7201 62.3584C46.0771 62.2974 47.4182 62.072 48.685 61.566C50.4571 60.9016 52.0548 59.7895 53.304 58.3741C54.5677 56.9732 55.4973 55.2689 55.9766 53.4491C56.1593 52.8255 56.2665 52.1935 56.3289 51.5572H54.894C54.8368 52.075 54.7424 52.5901 54.5967 53.0881C54.1755 54.7057 53.3621 56.2077 52.2437 57.4354C51.1252 58.6774 49.7308 59.6596 48.1767 60.2373C47.4068 60.555 46.5934 60.7283 45.7655 60.8439C45.5196 60.886 45.2786 60.8937 45.0368 60.9015C44.9282 60.9049 44.8194 60.9084 44.71 60.915ZM43.3304 61.6672C43.3304 60.0784 42.0305 58.7786 40.4418 58.7786C38.8531 58.7786 37.5533 60.0784 37.5533 61.6672C37.5533 63.2559 38.8531 64.5557 40.4418 64.5557C42.0305 64.5557 43.3304 63.2559 43.3304 61.6672Z" fill="#0A0A0A"/>
<path d="M54.1755 25.7767C54.468 26.6492 54.6748 27.542 54.8047 28.4486H56.2508C56.1225 27.3896 55.9046 26.3421 55.5409 25.3145C54.3643 21.7327 51.9677 18.5553 48.7867 16.4899C45.6202 14.4102 41.6694 13.5725 37.922 14.208C34.1745 14.8001 30.6885 16.8077 28.2628 19.7107C26.1725 22.1704 24.8827 25.2584 24.5547 28.4486H26.0205C26.3487 25.5925 27.5087 22.8354 29.3812 20.635C31.589 17.992 34.7555 16.1578 38.1544 15.6378C41.5677 15.0745 45.1264 15.8111 48.0024 17.7031C50.8928 19.5807 53.1007 22.4982 54.1755 25.7767Z" fill="#0A0A0A"/>
<path fill-rule="evenodd" clip-rule="evenodd" d="M25.999 31.3372H25.2913C20.9007 31.3372 17.3333 34.9046 17.3333 39.2952V40.7106C17.3333 45.1012 20.9007 48.6686 25.2913 48.6686H25.999V31.3372ZM24.5547 32.8248V47.181C21.3051 46.8055 18.7776 44.0469 18.7776 40.7106V39.2952C18.7776 35.9589 21.3051 33.2003 24.5547 32.8248Z" fill="#0A0A0A"/>
<path fill-rule="evenodd" clip-rule="evenodd" d="M54.8847 31.3372H55.5924C59.983 31.3372 63.5504 34.9046 63.5504 39.2952V40.7106C63.5504 45.1012 59.983 48.6686 55.5924 48.6686H54.8847V31.3372ZM62.1061 39.2952C62.1061 35.9589 59.5786 33.2003 56.3289 32.8248V47.181C59.5786 46.8199 62.1061 44.0469 62.1061 40.7106V39.2952Z" fill="#0A0A0A"/>
</g></symbol><symbol id="logo" viewBox="0 0 104 8"><g fill="none">
<g clip-path="url(#clip0_348_909)">
<path d="M1.75 1.33L5.29 7.77H9.39L12.89 1.33H14.63V0.16H9.38V1.33H10.89L8.36 6.03L5.78 1.33H7.63V0.16H0V1.33H1.75ZM46.94 1.33V0.16H53.97V1.33H52.22V6.59H53.84C55.34 6.59 56.34 5.59 56.34 4.24H57.49V7.77H46.94V6.59H48.71V1.32H46.94V1.33ZM29.88 0C26.35 0 24.48 1.76 24.48 3.97C24.48 6.18 26.28 8 29.9 8C33.53 8 35.31 6.21 35.31 3.97C35.31 1.73 33.41 0 29.88 0ZM29.84 6.79C28.55 6.77 27.99 5.34 28.01 3.93C28.04 2.46 28.74 1.18 29.95 1.2C31.15 1.22 31.79 2.52 31.77 4C31.74 5.37 31.17 6.81 29.84 6.8V6.79ZM69.49 1.33L73.04 7.77H77.14L80.63 1.33H82.38V0.16H77.12V1.33H78.64L76.1 6.03L73.53 1.33H75.37V0.16H67.74V1.33H69.49ZM97.63 0C94.1 0 92.23 1.76 92.23 3.97C92.23 6.18 94.02 8 97.64 8C101.26 8 103.04 6.21 103.04 3.97C103.04 1.73 101.17 0 97.64 0H97.63ZM97.59 6.79C96.3 6.77 95.73 5.34 95.76 3.93C95.79 2.46 96.49 1.18 97.69 1.2C98.9 1.22 99.54 2.52 99.51 4C99.49 5.37 98.91 6.81 97.59 6.8V6.79Z" fill="#0A0A0A"/>
</g>

</g></symbol><symbol id="mail" viewBox="0 0 81 80"><g fill="none">
<path fill-rule="evenodd" clip-rule="evenodd" d="M12.6667 22H68.6667V57.7778H12.6667V22ZM66.0112 23.5556H15.3222L35.7169 43.9503C38.4506 46.684 42.8828 46.684 45.6164 43.9503L66.0112 23.5556ZM14.2223 24.6555V55.1223L26.8945 42.45L27.9945 43.55L15.3222 56.2222H66.0112L53.339 43.55L54.4389 42.45L67.1111 55.1223V24.6555L46.7164 45.0503C43.3752 48.3914 37.9582 48.3914 34.617 45.0502L14.2223 24.6555Z" fill="#0A0A0A"/>
</g></symbol><symbol id="message" viewBox="0 0 80 80"><g fill="none">
<path d="M32.5333 34.6667C32.5333 35.6976 31.6976 36.5333 30.6667 36.5333C29.6357 36.5333 28.8 35.6976 28.8 34.6667C28.8 33.6357 29.6357 32.8 30.6667 32.8C31.6976 32.8 32.5333 33.6357 32.5333 34.6667Z" fill="#0A0A0A"/>
<path d="M40 36.5333C41.0309 36.5333 41.8667 35.6976 41.8667 34.6667C41.8667 33.6357 41.0309 32.8 40 32.8C38.9691 32.8 38.1333 33.6357 38.1333 34.6667C38.1333 35.6976 38.9691 36.5333 40 36.5333Z" fill="#0A0A0A"/>
<path d="M49.3333 36.5333C50.3643 36.5333 51.2 35.6976 51.2 34.6667C51.2 33.6357 50.3643 32.8 49.3333 32.8C48.3024 32.8 47.4667 33.6357 47.4667 34.6667C47.4667 35.6976 48.3024 36.5333 49.3333 36.5333Z" fill="#0A0A0A"/>
<path fill-rule="evenodd" clip-rule="evenodd" d="M21.3335 52.7923L21.3338 64.5333L32.5335 53.3333H54.9333C62.1499 53.3333 68 47.4832 68 40.2667V29.0667C68 21.8501 62.1499 16 54.9333 16H25.0667C17.8501 16 12 21.8501 12 29.0667V40.2667C12 46.186 15.936 51.186 21.3335 52.7923ZM23.2004 60.0268L23.2001 51.4002L21.866 51.0032C17.2382 49.6259 13.8667 45.3376 13.8667 40.2667V29.0667C13.8667 22.8811 18.8811 17.8667 25.0667 17.8667H54.9333C61.1189 17.8667 66.1333 22.8811 66.1333 29.0667V40.2667C66.1333 46.4523 61.1189 51.4667 54.9333 51.4667H31.7603L23.2004 60.0268Z" fill="#0A0A0A"/>
</g></symbol><symbol id="planet" viewBox="0 0 25 24"><g fill="none">
<g clip-path="url(#clip0_388_38482)">
<path d="M12.6666 23C18.7418 23 23.6666 18.0751 23.6666 12C23.6666 5.92486 18.7418 1 12.6666 1C6.59148 1 1.66663 5.92486 1.66663 12C1.66663 18.0751 6.59148 23 12.6666 23Z" stroke="#0A0A0A"/>
<path d="M13.9225 22.93V21.6492C13.9225 21.5871 13.935 21.5249 13.9557 21.4669L14.6686 19.6183C14.6893 19.5603 14.7017 19.4981 14.7017 19.436V18.5242C14.7017 18.3128 14.5691 18.1221 14.3702 18.0517L12.9195 17.517C12.7205 17.4424 12.5879 17.2559 12.5879 17.0445V14.5121C12.5879 14.3048 12.4595 14.1184 12.2646 14.0396L8.9116 12.7382C8.75411 12.676 8.6339 12.5392 8.60076 12.3734L8.10754 10.0731C8.05779 9.84104 7.85056 9.67523 7.61432 9.67523H6.38332C6.18441 9.67523 6.00617 9.5592 5.92328 9.38096L5.07776 7.52829C5.01973 7.40394 5.01558 7.26302 5.06533 7.1387L5.54198 5.89113C5.60826 5.7129 5.57098 5.50984 5.44249 5.36892L4.63428 4.48193" stroke="#0A0A0A"/>
<path d="M6.62396 2.80322L7.98342 3.41249C8.04973 3.44151 8.12019 3.45808 8.19065 3.45808H13.8647C13.9601 3.45808 14.0554 3.4871 14.1342 3.53683L16.4634 5.0165C16.6085 5.10767 16.6997 5.2693 16.6997 5.4434V7.2629C16.6997 7.5406 16.4718 7.76855 16.1941 7.76855H15.7008C15.5143 7.76855 15.3444 7.86804 15.2574 8.03382L14.2999 9.79532C14.2129 9.95695 14.0429 10.0606 13.8565 10.0606H11.9168C11.6391 10.0606 11.4111 10.2885 11.4111 10.5662V11.5361C11.4111 11.7226 11.5147 11.8925 11.6763 11.9796L13.7404 13.0862C13.9062 13.1774 14.1134 13.1649 14.2668 13.0572L14.7766 12.7007C14.8595 12.6427 14.9631 12.6095 15.0667 12.6095H17.5038C17.6695 12.6095 17.8271 12.6925 17.9182 12.8292L19.2943 14.8311C19.3896 14.9679 19.543 15.0508 19.7087 15.0508H19.9782C20.2559 15.0508 20.4838 15.2787 20.4838 15.5564V16.2445C20.4838 16.4434 20.3677 16.6216 20.1895 16.7045L19.2155 17.1563C19.0373 17.2392 18.9213 17.4174 18.9213 17.6163V18.4453C18.9213 18.5572 18.8839 18.6691 18.8135 18.7561L15.8501 22.5485" stroke="#0A0A0A"/>
<path d="M20.5872 4.36597V6.39684C20.5872 6.52948 20.5333 6.65797 20.438 6.75329L20.1852 7.00613C20.0898 7.10145 20.0359 7.22994 20.0359 7.36257V8.35316C20.0359 8.63082 20.2639 8.8588 20.5416 8.8588H22.672C22.7259 8.8588 22.7839 8.86709 22.8336 8.8878L23.2605 9.03287" fill="#0A0A0A"/>
<path d="M20.5872 4.36597V6.39684C20.5872 6.52948 20.5333 6.65797 20.438 6.75329L20.1852 7.00613C20.0898 7.10145 20.0359 7.22994 20.0359 7.36257V8.35316C20.0359 8.63082 20.2639 8.8588 20.5416 8.8588H22.672C22.7259 8.8588 22.7839 8.86709 22.8336 8.8878L23.2605 9.03287" stroke="#0A0A0A"/>
<path d="M6.6701 3L5.1701 4.5L6.1701 5.5L5.6701 7L6.1701 9H8.1701L9.1701 12L13.1701 14V17L15.1701 18V19.5L14.1701 22H15.1701L16.6701 20.5L18.1701 18.5V17L20.1701 16L19.1701 15L17.6701 13L15.1701 13.5H13.6701H12.6701L10.6701 12V10L13.6701 9.5L14.6701 8L16.1701 7V5.5L13.6701 4H8.1701L6.6701 3Z" fill="#0A0A0A" stroke="#0A0A0A"/>
</g>

</g></symbol><symbol id="repair" viewBox="0 0 81 80"><g fill="none">
<path d="M60.8313 44.0357L55.8813 44.7857C55.5313 44.8357 55.1813 44.9857 54.8813 45.1857C54.5313 45.4857 54.4313 46.0357 54.6813 46.4357C54.8813 46.6857 55.1313 46.7857 55.4313 46.7857C55.5813 46.7857 55.7813 46.7357 55.9313 46.6357C55.9813 46.5857 56.0813 46.5357 56.1313 46.5357L61.0813 45.7857C61.5813 45.6857 61.9313 45.2357 61.8313 44.7857C61.7813 44.2857 61.2813 43.9857 60.8313 44.0357Z" fill="#0A0A0A"/>
<path fill-rule="evenodd" clip-rule="evenodd" d="M50.7313 50.2858C50.7313 50.2858 48.5313 50.9858 46.9313 50.9858C46.6937 50.9858 46.4 50.9951 46.0664 51.0056C45.6281 51.0196 45.1208 51.0358 44.5813 51.0358C42.6313 51.0358 40.3313 50.9858 40.3313 50.9858C40.3313 50.9858 38.0313 51.0358 36.0813 51.0358C35.5419 51.0358 35.0345 51.0196 34.5963 51.0056C34.2627 50.9951 33.9689 50.9858 33.7313 50.9858C32.9213 50.9858 33.0584 50.8478 32.2912 50.6642V52.4735C33.0719 52.6475 32.8948 52.7638 33.7313 52.7858H36.2313H40.3313H46.9313C48.8313 52.7358 51.1813 51.9858 51.1813 51.9858C52.2313 51.7358 52.7813 50.9858 53.0813 50.3358C53.1813 50.1358 53.2313 49.9358 53.2813 49.7358C53.2813 49.7276 53.2892 49.6844 53.3023 49.6119C53.3704 49.2351 53.5813 48.0679 53.5813 46.9358C53.5813 45.3858 52.0813 44.7858 51.1313 44.7358L41.6813 44.2858H38.9813L35.3647 44.4722L32.2912 44.6587V46.4111L39.0313 46.0358H41.6313L47.9313 46.3358L51.0313 46.5358C51.0813 46.5358 51.8313 46.5358 51.8313 46.9358C51.8313 47.4656 51.7565 48.0204 51.6949 48.4768C51.6693 48.6664 51.646 48.839 51.6313 48.9858C51.5813 49.2358 51.5313 49.3858 51.5313 49.3858C51.5313 49.3858 51.5313 49.4358 51.4813 49.5358C51.4313 49.7358 51.2313 50.1858 50.7313 50.2858Z" fill="#0A0A0A"/>
<path fill-rule="evenodd" clip-rule="evenodd" d="M64.5813 62.5357C64.5813 62.9857 64.3813 63.3857 64.0813 63.6857C63.7813 64.0357 63.3313 64.1857 62.9313 64.1857H57.5813C57.2813 64.1857 57.0313 63.9357 57.0313 63.6357V60.5857C57.0313 60.0857 56.6313 59.7357 56.1313 59.7357H32.5518V61.4857H55.2813V63.6357C55.2813 64.8857 56.3313 65.9357 57.5813 65.9357H62.9313C63.8313 65.9357 64.6813 65.5857 65.3313 64.9357C65.9813 64.2857 66.3313 63.4357 66.3313 62.4857L66.2813 51.4357C66.6313 45.6857 65.7813 44.4857 65.1313 43.5857C64.7939 43.1218 64.35 42.8358 63.9493 42.5777C63.8748 42.5297 63.8018 42.4826 63.7313 42.4357C63.5813 42.3357 63.3313 42.1857 63.2313 42.1357C63.2313 42.0857 63.2313 42.0857 63.1813 42.0357C64.3813 41.4357 65.2813 39.8357 65.2813 38.5357C65.2813 37.9357 65.0813 37.4857 64.6813 37.0857C63.9697 36.4214 62.898 36.4325 62.6193 36.4354L62.5813 36.4357H58.6313C56.7313 32.6857 54.7313 30.8857 53.8813 30.2357C53.5313 29.9857 53.1313 29.8357 52.6313 29.7857L37.7716 29.7518C37.5326 30.1982 36.923 31.1772 36.3956 31.5213L51.9313 31.4857L52.4813 31.5357C52.6313 31.5357 52.7313 31.5857 52.8313 31.6857C53.7313 32.3357 55.9313 34.3357 57.9313 39.0857C57.9813 39.2357 58.6313 40.5357 60.4813 41.7857C61.0313 42.1357 61.4313 42.5357 61.7313 43.0357C62.0313 43.4857 62.4313 43.7357 62.8313 43.9857C63.1813 44.1857 63.5313 44.3857 63.7313 44.6357L63.7516 44.666C64.1544 45.2685 64.8254 46.2725 64.4813 51.3857L64.5813 62.5357ZM62.6313 38.1857C62.8813 38.1857 63.3313 38.2357 63.5313 38.5357C63.5313 39.4857 62.6313 40.5357 62.2813 40.5357C62.1313 40.5357 61.9813 40.5857 61.8813 40.6357C61.8063 40.5857 61.7313 40.5232 61.6563 40.4606C61.5813 40.3982 61.5064 40.3357 61.4313 40.2857C60.0313 39.3857 59.5313 38.3357 59.5313 38.3357C59.5313 38.3106 59.5187 38.2857 59.5063 38.2606C59.4938 38.2357 59.4813 38.2106 59.4813 38.1857H62.6313Z" fill="#0A0A0A"/>
<path fill-rule="evenodd" clip-rule="evenodd" d="M18.4685 15.7663C16.2262 17.7362 14.811 20.6205 14.8112 23.8387C14.8113 28.2071 17.4305 31.9326 21.1744 33.621L21.1754 60.5657C21.1754 62.999 23.1465 64.9701 25.5798 64.9701C28.013 64.9702 29.984 62.9993 29.9838 60.5661L29.9829 33.6213C33.7264 31.9333 36.3456 28.2079 36.3453 23.8395C36.3452 19.5485 33.8337 15.8525 30.1989 14.1225C30.0468 14.0485 29.8666 14.0586 29.7234 14.1487C29.5804 14.239 29.4941 14.3967 29.4949 14.5661L29.4952 22.0973L25.578 24.2613L21.6606 22.0969L21.6602 14.5658C21.6613 14.3967 21.5753 14.2387 21.4322 14.1485C21.289 14.0583 21.1093 14.0482 20.9572 14.1221C20.0482 14.5546 19.2161 15.1097 18.4685 15.7663ZM20.6868 15.4742C20.145 15.7918 19.5866 16.0909 19.1178 16.5021C17.0788 18.2914 15.785 20.9077 15.785 23.8385C15.7852 27.9319 18.2858 31.4186 21.845 32.8851C22.029 32.961 22.1484 33.1407 22.1477 33.3395L22.1488 60.565C22.1488 62.4727 23.6716 63.9954 25.5792 63.9955C27.4869 63.9955 29.0096 62.473 29.0094 60.5653L29.0084 33.3398C29.0077 33.141 29.1274 32.9613 29.3113 32.8853C32.8704 31.4189 35.3709 27.9329 35.3708 23.8393C35.3709 20.2347 33.3662 17.1737 30.4689 15.4749L30.4801 22.3675C30.4801 22.5487 30.3801 22.7154 30.2201 22.8003L25.816 25.2567C25.668 25.339 25.488 25.3389 25.3402 25.2567L20.9358 22.8001C20.776 22.715 20.6762 22.5481 20.6761 22.367L20.6868 15.4742Z" fill="#0A0A0A" stroke="#0A0A0A" stroke-width="0.3"/>
</g></symbol><symbol id="socials" viewBox="0 0 81 80"><g fill="none">
<path d="M45.1667 61H36.1667V62.5H45.1667V61Z" fill="#0A0A0A"/>
<path fill-rule="evenodd" clip-rule="evenodd" d="M61.6666 62.5C61.6666 64.9854 59.652 67 57.1666 67H24.1666C21.6814 67 19.6666 64.9854 19.6666 62.5V17.5C19.6666 15.0147 21.6814 13 24.1666 13H57.1666C59.652 13 61.6666 15.0147 61.6666 17.5V62.5ZM57.1666 65.5H24.1666C22.5098 65.5 21.1666 64.1569 21.1666 62.5V17.5C21.1666 15.8431 22.5098 14.5 24.1666 14.5H57.1666C58.8235 14.5 60.1666 15.8432 60.1666 17.5V62.5C60.1666 64.1569 58.8235 65.5 57.1666 65.5Z" fill="#0A0A0A"/>
<path d="M49.9822 48.9194C49.9822 49.0967 49.9054 49.2542 49.7901 49.3724C49.6749 49.5103 49.502 49.5693 49.3483 49.5693H47.293C47.1777 49.5693 47.0817 49.4709 47.0817 49.3527V48.1514C47.0817 47.9544 46.928 47.8165 46.7359 47.8165H34.5961C34.404 47.8165 34.2503 47.9544 34.2503 48.1514V49.3527C34.2503 49.4709 34.1543 49.5693 34.0391 49.5693H32.0029C31.8301 49.5693 31.6572 49.5103 31.5419 49.3724C31.4267 49.2542 31.3498 49.0967 31.3498 48.9194L31.3883 44.5079C31.2538 42.4794 31.5227 42.1052 31.6956 41.8689C31.7724 41.7704 31.8877 41.6719 32.0221 41.6129C32.1758 41.5144 32.3295 41.4159 32.4447 41.2387C32.56 41.0417 32.7137 40.8842 32.925 40.7463C33.6357 40.254 33.8854 39.7222 33.9046 39.6631C34.6729 37.8316 35.5181 37.0241 35.8639 36.7681C35.9023 36.7287 35.9599 36.709 35.9983 36.709L45.1224 36.6893L45.3337 36.709C45.3913 36.709 45.4298 36.7287 45.4682 36.7681C45.8139 37.0241 46.6591 37.8119 47.4274 39.6828C47.4467 39.7419 47.6964 40.254 48.4071 40.7463C48.6184 40.8842 48.772 41.0417 48.8873 41.2387C49.0026 41.4159 49.1562 41.5144 49.3099 41.6129C49.4444 41.6916 49.5788 41.7704 49.6556 41.8689C49.8093 42.1052 50.0782 42.4794 49.9438 44.5276L49.9822 48.9194ZM44.6614 44.0943C44.6614 44.0943 43.8162 44.3701 43.2016 44.3701C42.9903 44.3701 42.6637 44.3898 42.2988 44.3898C41.5496 44.3898 40.666 44.3701 40.666 44.3701C40.666 44.3701 39.7824 44.3898 39.0333 44.3898C38.6683 44.3898 38.3418 44.3701 38.1305 44.3701C37.5158 44.3701 36.6706 44.0943 36.6322 44.0746C36.4209 44.0353 36.3633 43.7398 36.3633 43.7398C36.3633 43.7398 36.2673 43.2278 36.2673 42.7748C36.2673 42.6173 36.5554 42.6173 36.5554 42.5976L40.1666 42.4203H41.1654L43.5857 42.5385L44.7767 42.6173C44.7959 42.6173 45.084 42.6173 45.084 42.7748C45.084 43.0702 45.0264 43.3853 45.0072 43.5823C44.988 43.6808 44.9687 43.7398 44.9687 43.7398C44.9687 43.7398 44.9687 43.7595 44.9495 43.7989C44.9303 43.8777 44.8535 44.0549 44.6614 44.0943ZM44.8151 41.9083L41.1847 41.731H41.1654H40.1474L36.5362 41.9083C36.517 41.9083 36.517 41.9083 36.517 41.9083C36.1328 41.928 35.5757 42.1643 35.5757 42.7748C35.5757 43.2869 35.691 43.858 35.691 43.8777C35.7486 44.1534 35.9791 44.6458 36.4593 44.7442C36.4978 44.7639 37.4006 45.0594 38.1305 45.079C38.361 45.079 38.7067 45.079 39.0909 45.079C39.84 45.079 40.6468 45.079 40.666 45.079C40.7044 45.079 42.5293 45.079 43.2016 45.079C43.9315 45.0594 44.8343 44.7639 44.8343 44.7639C45.2377 44.6655 45.449 44.3701 45.5642 44.114C45.6026 44.0353 45.6218 43.9565 45.641 43.8777C45.641 43.858 45.7563 43.3066 45.7563 42.7748C45.7563 42.1643 45.18 41.928 44.8151 41.9083ZM48.5415 41.6326L46.6399 41.928C46.5054 41.9477 46.371 42.0067 46.2557 42.0855C46.1213 42.2037 46.0828 42.4203 46.1789 42.5779C46.2557 42.6764 46.3518 42.7157 46.467 42.7157C46.5246 42.7157 46.6015 42.696 46.6591 42.6567C46.6783 42.637 46.7167 42.6173 46.7359 42.6173L48.6376 42.3219C48.8297 42.2825 48.9641 42.1052 48.9257 41.928C48.9065 41.731 48.7144 41.6129 48.5415 41.6326ZM34.6921 41.928L32.7905 41.6326C32.6176 41.6129 32.4255 41.731 32.4063 41.928C32.3679 42.1052 32.5024 42.2825 32.6945 42.3219L34.5769 42.6173C34.6153 42.6173 34.6537 42.637 34.6729 42.6567C34.7306 42.696 34.8074 42.7157 34.865 42.7157C34.9803 42.7157 35.0955 42.6764 35.1532 42.5779C35.2684 42.4203 35.23 42.2037 35.0763 42.0855C34.9611 42.0067 34.8266 41.9477 34.6921 41.928ZM32.1566 39.3283H33.3091C33.3091 39.348 33.2899 39.3677 33.2899 39.3874C33.2899 39.3874 33.0978 39.801 32.56 40.1555C32.5024 40.1949 32.4639 40.2343 32.4063 40.2933C32.3679 40.2737 32.3295 40.254 32.2911 40.254C32.1374 40.254 31.7916 39.8404 31.8109 39.4071C31.8685 39.348 32.0414 39.3283 32.1566 39.3283ZM49.2331 39.3283C49.3291 39.3283 49.502 39.348 49.5788 39.4662C49.5788 39.8404 49.2331 40.254 49.0986 40.254C49.041 40.254 48.9833 40.2737 48.9449 40.2933C48.8873 40.254 48.8297 40.1949 48.7721 40.1555C48.2342 39.801 48.0421 39.3874 48.0421 39.3874C48.0421 39.3677 48.0229 39.348 48.0229 39.3283H49.2331ZM50.1935 41.4553C50.0398 41.2387 49.8285 41.1205 49.6556 41.0023C49.598 40.963 49.502 40.9039 49.4636 40.8842C49.4636 40.8645 49.4636 40.8645 49.4444 40.8448C49.9054 40.6085 50.2511 39.9782 50.2511 39.4662C50.2511 39.2299 50.1743 39.0526 50.0206 38.8951C49.7325 38.6193 49.2907 38.639 49.2138 38.639H47.6964C46.9664 37.162 46.1981 36.453 45.8716 36.1969C45.7371 36.0985 45.5834 36.0394 45.3913 36.0197L36.1712 36H36.152L35.9407 36.0197C35.7678 36.0394 35.5949 36.0985 35.4605 36.2166C35.1339 36.453 34.3656 37.162 33.6357 38.639H32.1758C32.099 38.6193 31.638 38.6193 31.3498 38.8951C31.1962 39.0526 31.1193 39.2299 31.1193 39.4662C31.1193 39.9782 31.4651 40.5888 31.8877 40.8448C31.8877 40.8448 31.8685 40.8645 31.8685 40.8842C31.8301 40.9039 31.734 40.963 31.6764 41.0023C31.5035 41.1205 31.2922 41.2387 31.1386 41.4553C30.9081 41.8098 30.5623 42.2628 30.6968 44.5276L30.6775 48.8997C30.6775 49.2739 30.812 49.6087 31.0617 49.8648C31.3114 50.1208 31.638 50.2586 32.0029 50.2586H34.0391C34.5193 50.2586 34.9226 49.8451 34.9226 49.3527V48.5058H46.4094V49.3527C46.4094 49.8451 46.8128 50.2586 47.293 50.2586H49.3483C49.6941 50.2586 50.0206 50.1208 50.2703 49.8648C50.52 49.6087 50.6545 49.2739 50.6545 48.8997L50.6353 44.5473C50.7697 42.2825 50.4432 41.8098 50.1935 41.4553Z" fill="#0A0A0A"/>
<rect x="25.1666" y="19.5" width="31" height="37" stroke="#0A0A0A"/>
</g></symbol><symbol id="vkontakte" viewBox="0 0 25 24"><g fill="none">
<path d="M22.4866 1.68C20.7946 1.43051e-07 18.0826 0 12.6706 0H11.6626C6.25063 0 3.53863 1.43051e-07 1.84663 1.68C0.154628 3.36 0.166628 6.084 0.166628 11.496V12.504C0.166628 17.916 0.166628 20.628 1.84663 22.32C3.52663 24.012 6.25063 24 11.6626 24H12.6706C18.0826 24 20.7946 24 22.4866 22.32C24.1786 20.64 24.1666 17.916 24.1666 12.504V11.496C24.1666 6.084 24.1666 3.372 22.4866 1.68ZM19.6666 17.004H17.9146C17.2546 17.004 17.0506 16.464 15.8746 15.276C14.8306 14.28 14.3866 14.148 14.1226 14.148C13.8586 14.148 13.6666 14.244 13.6666 14.748V16.32C13.6666 16.752 13.5346 17.004 12.4666 17.004C11.378 16.9391 10.3207 16.6144 9.38321 16.0568C8.4458 15.4994 7.65555 14.7256 7.07863 13.8C5.72095 12.104 4.77608 10.1158 4.31863 7.992C4.31863 7.74 4.41463 7.5 4.91863 7.5H6.67063C7.11463 7.5 7.28263 7.692 7.45063 8.184C8.30263 10.668 9.75463 12.852 10.3426 12.852C10.5706 12.852 10.6666 12.744 10.6666 12.18V9.6C10.6066 8.4 9.97063 8.316 9.97063 7.896C9.97219 7.83978 9.98491 7.78444 10.0082 7.73326C10.0316 7.68208 10.0648 7.6361 10.1063 7.59805C10.1477 7.56 10.1963 7.53065 10.2493 7.51175C10.3023 7.49284 10.3585 7.48476 10.4146 7.488H13.1626C13.5346 7.488 13.6666 7.692 13.6666 8.136V11.604C13.6666 11.964 13.8346 12.096 13.9426 12.096C14.0506 12.096 14.3506 11.964 14.7586 11.556C15.6449 10.4663 16.3685 9.25358 16.9066 7.956C16.9636 7.80156 17.0695 7.66994 17.2081 7.58113C17.3467 7.49233 17.5105 7.45121 17.6746 7.464H19.3666C19.9066 7.464 20.0146 7.74 19.9066 8.112C19.2512 9.53318 18.4467 10.8808 17.5066 12.132C17.3266 12.432 17.2546 12.576 17.5066 12.912C17.7586 13.248 18.3106 13.692 18.7066 14.172C19.3103 14.7683 19.8093 15.462 20.1826 16.224C20.4226 16.8 20.1706 17.004 19.6666 17.004Z" fill="#0A0A0A"/>
</g></symbol><symbol id="youtube" viewBox="0 0 24 18"><g fill="none">
<path fill-rule="evenodd" clip-rule="evenodd" d="M9.522 12.135L9.52125 5.34387L16.0057 8.7511L9.522 12.135ZM23.76 4.16708C23.76 4.16708 23.5252 2.5016 22.806 1.76818C21.8932 0.80515 20.8703 0.80062 20.4015 0.74472C17.043 0.5 12.0052 0.5 12.0052 0.5H11.9948C11.9948 0.5 6.957 0.5 3.5985 0.74472C3.129 0.80062 2.10675 0.80515 1.19325 1.76818C0.474 2.5016 0.24 4.16708 0.24 4.16708C0.24 4.16708 0 6.12336 0 8.0789V9.9128C0 11.8691 0.24 13.8246 0.24 13.8246C0.24 13.8246 0.474 15.4901 1.19325 16.2235C2.10675 17.1865 3.306 17.1563 3.84 17.2568C5.76 17.4426 12 17.5 12 17.5C12 17.5 17.043 17.4924 20.4015 17.2477C20.8703 17.1911 21.8932 17.1865 22.806 16.2235C23.5252 15.4901 23.76 13.8246 23.76 13.8246C23.76 13.8246 24 11.8691 24 9.9128V8.0789C24 6.12336 23.76 4.16708 23.76 4.16708Z" fill="#0A0A0A"/>
</g></symbol></svg>