<svg width="81" height="80" viewBox="0 0 81 80" fill="none" xmlns="http://www.w3.org/2000/svg">
<path fill-rule="evenodd" clip-rule="evenodd" d="M44.71 60.915C44.3551 58.8775 42.5827 57.3343 40.4418 57.3343C38.0443 57.3343 36.109 59.2696 36.109 61.6672C36.109 64.0647 38.0443 66 40.4418 66C42.604 66 44.3903 64.426 44.7201 62.3584C46.0771 62.2974 47.4182 62.072 48.685 61.566C50.4571 60.9016 52.0548 59.7895 53.304 58.3741C54.5677 56.9732 55.4973 55.2689 55.9766 53.4491C56.1593 52.8255 56.2665 52.1935 56.3289 51.5572H54.894C54.8368 52.075 54.7424 52.5901 54.5967 53.0881C54.1755 54.7057 53.3621 56.2077 52.2437 57.4354C51.1252 58.6774 49.7308 59.6596 48.1767 60.2373C47.4068 60.555 46.5934 60.7283 45.7655 60.8439C45.5196 60.886 45.2786 60.8937 45.0368 60.9015C44.9282 60.9049 44.8194 60.9084 44.71 60.915ZM43.3304 61.6672C43.3304 60.0784 42.0305 58.7786 40.4418 58.7786C38.8531 58.7786 37.5533 60.0784 37.5533 61.6672C37.5533 63.2559 38.8531 64.5557 40.4418 64.5557C42.0305 64.5557 43.3304 63.2559 43.3304 61.6672Z" fill="#0A0A0A"/>
<path d="M54.1755 25.7767C54.468 26.6492 54.6748 27.542 54.8047 28.4486H56.2508C56.1225 27.3896 55.9046 26.3421 55.5409 25.3145C54.3643 21.7327 51.9677 18.5553 48.7867 16.4899C45.6202 14.4102 41.6694 13.5725 37.922 14.208C34.1745 14.8001 30.6885 16.8077 28.2628 19.7107C26.1725 22.1704 24.8827 25.2584 24.5547 28.4486H26.0205C26.3487 25.5925 27.5087 22.8354 29.3812 20.635C31.589 17.992 34.7555 16.1578 38.1544 15.6378C41.5677 15.0745 45.1264 15.8111 48.0024 17.7031C50.8928 19.5807 53.1007 22.4982 54.1755 25.7767Z" fill="#0A0A0A"/>
<path fill-rule="evenodd" clip-rule="evenodd" d="M25.999 31.3372H25.2913C20.9007 31.3372 17.3333 34.9046 17.3333 39.2952V40.7106C17.3333 45.1012 20.9007 48.6686 25.2913 48.6686H25.999V31.3372ZM24.5547 32.8248V47.181C21.3051 46.8055 18.7776 44.0469 18.7776 40.7106V39.2952C18.7776 35.9589 21.3051 33.2003 24.5547 32.8248Z" fill="#0A0A0A"/>
<path fill-rule="evenodd" clip-rule="evenodd" d="M54.8847 31.3372H55.5924C59.983 31.3372 63.5504 34.9046 63.5504 39.2952V40.7106C63.5504 45.1012 59.983 48.6686 55.5924 48.6686H54.8847V31.3372ZM62.1061 39.2952C62.1061 35.9589 59.5786 33.2003 56.3289 32.8248V47.181C59.5786 46.8199 62.1061 44.0469 62.1061 40.7106V39.2952Z" fill="#0A0A0A"/>
</svg>
