<svg width="104" height="8" viewBox="0 0 104 8" fill="none" xmlns="http://www.w3.org/2000/svg">
<g clip-path="url(#clip0_348_909)">
<path d="M1.75 1.33L5.29 7.77H9.39L12.89 1.33H14.63V0.16H9.38V1.33H10.89L8.36 6.03L5.78 1.33H7.63V0.16H0V1.33H1.75ZM46.94 1.33V0.16H53.97V1.33H52.22V6.59H53.84C55.34 6.59 56.34 5.59 56.34 4.24H57.49V7.77H46.94V6.59H48.71V1.32H46.94V1.33ZM29.88 0C26.35 0 24.48 1.76 24.48 3.97C24.48 6.18 26.28 8 29.9 8C33.53 8 35.31 6.21 35.31 3.97C35.31 1.73 33.41 0 29.88 0ZM29.84 6.79C28.55 6.77 27.99 5.34 28.01 3.93C28.04 2.46 28.74 1.18 29.95 1.2C31.15 1.22 31.79 2.52 31.77 4C31.74 5.37 31.17 6.81 29.84 6.8V6.79ZM69.49 1.33L73.04 7.77H77.14L80.63 1.33H82.38V0.16H77.12V1.33H78.64L76.1 6.03L73.53 1.33H75.37V0.16H67.74V1.33H69.49ZM97.63 0C94.1 0 92.23 1.76 92.23 3.97C92.23 6.18 94.02 8 97.64 8C101.26 8 103.04 6.21 103.04 3.97C103.04 1.73 101.17 0 97.64 0H97.63ZM97.59 6.79C96.3 6.77 95.73 5.34 95.76 3.93C95.79 2.46 96.49 1.18 97.69 1.2C98.9 1.22 99.54 2.52 99.51 4C99.49 5.37 98.91 6.81 97.59 6.8V6.79Z" fill="#0A0A0A"/>
</g>
<defs>
<clipPath id="clip0_348_909">
<rect width="103.04" height="8" fill="white"/>
</clipPath>
</defs>
</svg>
