<svg width="80" height="80" viewBox="0 0 80 80" fill="none" xmlns="http://www.w3.org/2000/svg">
<path d="M32.5333 34.6667C32.5333 35.6976 31.6976 36.5333 30.6667 36.5333C29.6357 36.5333 28.8 35.6976 28.8 34.6667C28.8 33.6357 29.6357 32.8 30.6667 32.8C31.6976 32.8 32.5333 33.6357 32.5333 34.6667Z" fill="#0A0A0A"/>
<path d="M40 36.5333C41.0309 36.5333 41.8667 35.6976 41.8667 34.6667C41.8667 33.6357 41.0309 32.8 40 32.8C38.9691 32.8 38.1333 33.6357 38.1333 34.6667C38.1333 35.6976 38.9691 36.5333 40 36.5333Z" fill="#0A0A0A"/>
<path d="M49.3333 36.5333C50.3643 36.5333 51.2 35.6976 51.2 34.6667C51.2 33.6357 50.3643 32.8 49.3333 32.8C48.3024 32.8 47.4667 33.6357 47.4667 34.6667C47.4667 35.6976 48.3024 36.5333 49.3333 36.5333Z" fill="#0A0A0A"/>
<path fill-rule="evenodd" clip-rule="evenodd" d="M21.3335 52.7923L21.3338 64.5333L32.5335 53.3333H54.9333C62.1499 53.3333 68 47.4832 68 40.2667V29.0667C68 21.8501 62.1499 16 54.9333 16H25.0667C17.8501 16 12 21.8501 12 29.0667V40.2667C12 46.186 15.936 51.186 21.3335 52.7923ZM23.2004 60.0268L23.2001 51.4002L21.866 51.0032C17.2382 49.6259 13.8667 45.3376 13.8667 40.2667V29.0667C13.8667 22.8811 18.8811 17.8667 25.0667 17.8667H54.9333C61.1189 17.8667 66.1333 22.8811 66.1333 29.0667V40.2667C66.1333 46.4523 61.1189 51.4667 54.9333 51.4667H31.7603L23.2004 60.0268Z" fill="#0A0A0A"/>
</svg>
