<svg width="81" height="80" viewBox="0 0 81 80" fill="none" xmlns="http://www.w3.org/2000/svg">
<path d="M60.8313 44.0357L55.8813 44.7857C55.5313 44.8357 55.1813 44.9857 54.8813 45.1857C54.5313 45.4857 54.4313 46.0357 54.6813 46.4357C54.8813 46.6857 55.1313 46.7857 55.4313 46.7857C55.5813 46.7857 55.7813 46.7357 55.9313 46.6357C55.9813 46.5857 56.0813 46.5357 56.1313 46.5357L61.0813 45.7857C61.5813 45.6857 61.9313 45.2357 61.8313 44.7857C61.7813 44.2857 61.2813 43.9857 60.8313 44.0357Z" fill="#0A0A0A"/>
<path fill-rule="evenodd" clip-rule="evenodd" d="M50.7313 50.2858C50.7313 50.2858 48.5313 50.9858 46.9313 50.9858C46.6937 50.9858 46.4 50.9951 46.0664 51.0056C45.6281 51.0196 45.1208 51.0358 44.5813 51.0358C42.6313 51.0358 40.3313 50.9858 40.3313 50.9858C40.3313 50.9858 38.0313 51.0358 36.0813 51.0358C35.5419 51.0358 35.0345 51.0196 34.5963 51.0056C34.2627 50.9951 33.9689 50.9858 33.7313 50.9858C32.9213 50.9858 33.0584 50.8478 32.2912 50.6642V52.4735C33.0719 52.6475 32.8948 52.7638 33.7313 52.7858H36.2313H40.3313H46.9313C48.8313 52.7358 51.1813 51.9858 51.1813 51.9858C52.2313 51.7358 52.7813 50.9858 53.0813 50.3358C53.1813 50.1358 53.2313 49.9358 53.2813 49.7358C53.2813 49.7276 53.2892 49.6844 53.3023 49.6119C53.3704 49.2351 53.5813 48.0679 53.5813 46.9358C53.5813 45.3858 52.0813 44.7858 51.1313 44.7358L41.6813 44.2858H38.9813L35.3647 44.4722L32.2912 44.6587V46.4111L39.0313 46.0358H41.6313L47.9313 46.3358L51.0313 46.5358C51.0813 46.5358 51.8313 46.5358 51.8313 46.9358C51.8313 47.4656 51.7565 48.0204 51.6949 48.4768C51.6693 48.6664 51.646 48.839 51.6313 48.9858C51.5813 49.2358 51.5313 49.3858 51.5313 49.3858C51.5313 49.3858 51.5313 49.4358 51.4813 49.5358C51.4313 49.7358 51.2313 50.1858 50.7313 50.2858Z" fill="#0A0A0A"/>
<path fill-rule="evenodd" clip-rule="evenodd" d="M64.5813 62.5357C64.5813 62.9857 64.3813 63.3857 64.0813 63.6857C63.7813 64.0357 63.3313 64.1857 62.9313 64.1857H57.5813C57.2813 64.1857 57.0313 63.9357 57.0313 63.6357V60.5857C57.0313 60.0857 56.6313 59.7357 56.1313 59.7357H32.5518V61.4857H55.2813V63.6357C55.2813 64.8857 56.3313 65.9357 57.5813 65.9357H62.9313C63.8313 65.9357 64.6813 65.5857 65.3313 64.9357C65.9813 64.2857 66.3313 63.4357 66.3313 62.4857L66.2813 51.4357C66.6313 45.6857 65.7813 44.4857 65.1313 43.5857C64.7939 43.1218 64.35 42.8358 63.9493 42.5777C63.8748 42.5297 63.8018 42.4826 63.7313 42.4357C63.5813 42.3357 63.3313 42.1857 63.2313 42.1357C63.2313 42.0857 63.2313 42.0857 63.1813 42.0357C64.3813 41.4357 65.2813 39.8357 65.2813 38.5357C65.2813 37.9357 65.0813 37.4857 64.6813 37.0857C63.9697 36.4214 62.898 36.4325 62.6193 36.4354L62.5813 36.4357H58.6313C56.7313 32.6857 54.7313 30.8857 53.8813 30.2357C53.5313 29.9857 53.1313 29.8357 52.6313 29.7857L37.7716 29.7518C37.5326 30.1982 36.923 31.1772 36.3956 31.5213L51.9313 31.4857L52.4813 31.5357C52.6313 31.5357 52.7313 31.5857 52.8313 31.6857C53.7313 32.3357 55.9313 34.3357 57.9313 39.0857C57.9813 39.2357 58.6313 40.5357 60.4813 41.7857C61.0313 42.1357 61.4313 42.5357 61.7313 43.0357C62.0313 43.4857 62.4313 43.7357 62.8313 43.9857C63.1813 44.1857 63.5313 44.3857 63.7313 44.6357L63.7516 44.666C64.1544 45.2685 64.8254 46.2725 64.4813 51.3857L64.5813 62.5357ZM62.6313 38.1857C62.8813 38.1857 63.3313 38.2357 63.5313 38.5357C63.5313 39.4857 62.6313 40.5357 62.2813 40.5357C62.1313 40.5357 61.9813 40.5857 61.8813 40.6357C61.8063 40.5857 61.7313 40.5232 61.6563 40.4606C61.5813 40.3982 61.5064 40.3357 61.4313 40.2857C60.0313 39.3857 59.5313 38.3357 59.5313 38.3357C59.5313 38.3106 59.5187 38.2857 59.5063 38.2606C59.4938 38.2357 59.4813 38.2106 59.4813 38.1857H62.6313Z" fill="#0A0A0A"/>
<path fill-rule="evenodd" clip-rule="evenodd" d="M18.4685 15.7663C16.2262 17.7362 14.811 20.6205 14.8112 23.8387C14.8113 28.2071 17.4305 31.9326 21.1744 33.621L21.1754 60.5657C21.1754 62.999 23.1465 64.9701 25.5798 64.9701C28.013 64.9702 29.984 62.9993 29.9838 60.5661L29.9829 33.6213C33.7264 31.9333 36.3456 28.2079 36.3453 23.8395C36.3452 19.5485 33.8337 15.8525 30.1989 14.1225C30.0468 14.0485 29.8666 14.0586 29.7234 14.1487C29.5804 14.239 29.4941 14.3967 29.4949 14.5661L29.4952 22.0973L25.578 24.2613L21.6606 22.0969L21.6602 14.5658C21.6613 14.3967 21.5753 14.2387 21.4322 14.1485C21.289 14.0583 21.1093 14.0482 20.9572 14.1221C20.0482 14.5546 19.2161 15.1097 18.4685 15.7663ZM20.6868 15.4742C20.145 15.7918 19.5866 16.0909 19.1178 16.5021C17.0788 18.2914 15.785 20.9077 15.785 23.8385C15.7852 27.9319 18.2858 31.4186 21.845 32.8851C22.029 32.961 22.1484 33.1407 22.1477 33.3395L22.1488 60.565C22.1488 62.4727 23.6716 63.9954 25.5792 63.9955C27.4869 63.9955 29.0096 62.473 29.0094 60.5653L29.0084 33.3398C29.0077 33.141 29.1274 32.9613 29.3113 32.8853C32.8704 31.4189 35.3709 27.9329 35.3708 23.8393C35.3709 20.2347 33.3662 17.1737 30.4689 15.4749L30.4801 22.3675C30.4801 22.5487 30.3801 22.7154 30.2201 22.8003L25.816 25.2567C25.668 25.339 25.488 25.3389 25.3402 25.2567L20.9358 22.8001C20.776 22.715 20.6762 22.5481 20.6761 22.367L20.6868 15.4742Z" fill="#0A0A0A" stroke="#0A0A0A" stroke-width="0.3"/>
</svg>
